<svg width="555" height="460" viewBox="0 0 555 460" fill="none" xmlns="http://www.w3.org/2000/svg">
<mask id="mask0_1880_49153" style="mask-type:alpha" maskUnits="userSpaceOnUse" x="0" y="0" width="555" height="460">
<rect width="555" height="460" fill="#C4C4C4"/>
</mask>
<g mask="url(#mask0_1880_49153)">
<g opacity="0.1">
<path fill-rule="evenodd" clip-rule="evenodd" d="M494 291L364 302.915V311L494 299.298V291ZM494 330L364 342.511V351L494 338.713V330ZM364 377.511L494 365V373.713L364 386V377.511Z" fill="white"/>
<path d="M364 302.915L363.954 302.417L363.5 302.459V302.915H364ZM494 291H494.5V290.452L493.954 290.502L494 291ZM364 311H363.5V311.547L364.045 311.498L364 311ZM494 299.298L494.045 299.796L494.5 299.755V299.298H494ZM364 342.511L363.952 342.013L363.5 342.056V342.511H364ZM494 330H494.5V329.45L493.952 329.502L494 330ZM364 351H363.5V351.549L364.047 351.498L364 351ZM494 338.713L494.047 339.211L494.5 339.168V338.713H494ZM494 365H494.5V364.45L493.952 364.502L494 365ZM364 377.511L363.952 377.013L363.5 377.056V377.511H364ZM494 373.713L494.047 374.211L494.5 374.168V373.713H494ZM364 386H363.5V386.549L364.047 386.498L364 386ZM364.046 303.413L494.046 291.498L493.954 290.502L363.954 302.417L364.046 303.413ZM364.5 311V302.915H363.5V311H364.5ZM493.955 298.8L363.955 310.502L364.045 311.498L494.045 299.796L493.955 298.8ZM493.5 291V299.298H494.5V291H493.5ZM364.048 343.008L494.048 330.498L493.952 329.502L363.952 342.013L364.048 343.008ZM364.5 351V342.511H363.5V351H364.5ZM493.953 338.215L363.953 350.502L364.047 351.498L494.047 339.211L493.953 338.215ZM493.5 330V338.713H494.5V330H493.5ZM493.952 364.502L363.952 377.013L364.048 378.008L494.048 365.498L493.952 364.502ZM494.5 373.713V365H493.5V373.713H494.5ZM364.047 386.498L494.047 374.211L493.953 373.215L363.953 385.502L364.047 386.498ZM363.5 377.511V386H364.5V377.511H363.5Z" fill="black"/>
</g>
<mask id="path-4-inside-1_1880_49153" fill="white">
<path fill-rule="evenodd" clip-rule="evenodd" d="M33.4619 505.353L-3.5 542.526V552.5L33.4619 515.327L124.268 429.47V458.565L33.4619 545.466H27V555.456H33.4619L124.268 468.759V498.079L33.4619 584.286H27V594.276H33.4619L124.268 508.273V537.136H131.683V501.25L217.174 420.281V449.464H224.589V413.258L295.101 346.475V335.898L224.589 402.839V372.977L295.101 305.655V295.078L224.589 362.558V334.616L295.101 267.946V257.385L223.034 325.687C222.346 325.301 221.608 326.126 220.852 326.972C220.434 327.439 220.01 327.912 219.587 328.191C219.249 328.412 218.814 328.897 218.379 329.381C217.945 329.864 217.511 330.347 217.174 330.569V331.241L129.709 414.136C129.144 414.175 128.55 414.834 127.945 415.506C127.527 415.97 127.104 416.44 126.681 416.717C126.343 416.937 125.908 417.418 125.473 417.899C125.038 418.378 124.604 418.858 124.268 419.078V419.293L33.4619 505.353ZM217.174 341.627L131.683 422.459V451.469L217.174 369.654V341.627ZM217.174 380.057L131.683 461.679V491.04L217.174 409.878V380.057Z"/>
</mask>
<path fill-rule="evenodd" clip-rule="evenodd" d="M33.4619 505.353L-3.5 542.526V552.5L33.4619 515.327L124.268 429.47V458.565L33.4619 545.466H27V555.456H33.4619L124.268 468.759V498.079L33.4619 584.286H27V594.276H33.4619L124.268 508.273V537.136H131.683V501.25L217.174 420.281V449.464H224.589V413.258L295.101 346.475V335.898L224.589 402.839V372.977L295.101 305.655V295.078L224.589 362.558V334.616L295.101 267.946V257.385L223.034 325.687C222.346 325.301 221.608 326.126 220.852 326.972C220.434 327.439 220.01 327.912 219.587 328.191C219.249 328.412 218.814 328.897 218.379 329.381C217.945 329.864 217.511 330.347 217.174 330.569V331.241L129.709 414.136C129.144 414.175 128.55 414.834 127.945 415.506C127.527 415.97 127.104 416.44 126.681 416.717C126.343 416.937 125.908 417.418 125.473 417.899C125.038 418.378 124.604 418.858 124.268 419.078V419.293L33.4619 505.353ZM217.174 341.627L131.683 422.459V451.469L217.174 369.654V341.627ZM217.174 380.057L131.683 461.679V491.04L217.174 409.878V380.057Z" fill="white"/>
<path d="M-3.5 542.526L-4.20911 541.821L-4.5 542.114V542.526H-3.5ZM33.4619 505.353L32.7741 504.628L32.7633 504.638L32.7528 504.648L33.4619 505.353ZM-3.5 552.5H-4.5V554.924L-2.79089 553.205L-3.5 552.5ZM33.4619 515.327L32.7749 514.6L32.7637 514.611L32.7528 514.622L33.4619 515.327ZM124.268 429.47H125.268V427.148L123.581 428.743L124.268 429.47ZM124.268 458.565L124.959 459.288L125.268 458.992V458.565H124.268ZM33.4619 545.466V546.466H33.8633L34.1534 546.188L33.4619 545.466ZM27 545.466V544.466H26V545.466H27ZM27 555.456H26V556.456H27V555.456ZM33.4619 555.456V556.456H33.8627L34.1525 556.179L33.4619 555.456ZM124.268 468.759H125.268V466.422L123.577 468.036L124.268 468.759ZM124.268 498.079L124.956 498.804L125.268 498.509V498.079H124.268ZM33.4619 584.286V585.286H33.861L34.1505 585.011L33.4619 584.286ZM27 584.286V583.286H26V584.286H27ZM27 594.276H26V595.276H27V594.276ZM33.4619 594.276V595.276H33.8603L34.1496 595.002L33.4619 594.276ZM124.268 508.273H125.268V505.949L123.58 507.547L124.268 508.273ZM124.268 537.136H123.268V538.136H124.268V537.136ZM131.683 537.136V538.136H132.683V537.136H131.683ZM131.683 501.25L130.995 500.524L130.683 500.82V501.25H131.683ZM217.174 420.281H218.174V417.957L216.486 419.555L217.174 420.281ZM217.174 449.464H216.174V450.464H217.174V449.464ZM224.589 449.464V450.464H225.589V449.464H224.589ZM224.589 413.258L223.901 412.532L223.589 412.828V413.258H224.589ZM295.101 346.475L295.789 347.201L296.101 346.906V346.475H295.101ZM295.101 335.898H296.101V333.57L294.413 335.173L295.101 335.898ZM224.589 402.839H223.589V405.167L225.277 403.564L224.589 402.839ZM224.589 372.977L223.898 372.254L223.589 372.549V372.977H224.589ZM295.101 305.655L295.792 306.379L296.101 306.083V305.655H295.101ZM295.101 295.078H296.101V292.737L294.41 294.355L295.101 295.078ZM224.589 362.558H223.589V364.899L225.28 363.28L224.589 362.558ZM224.589 334.616L223.902 333.889L223.589 334.185V334.616H224.589ZM295.101 267.946L295.788 268.672L296.101 268.377V267.946H295.101ZM295.101 257.385H296.101V255.06L294.413 256.66L295.101 257.385ZM223.034 325.687L222.543 326.559L223.186 326.921L223.722 326.413L223.034 325.687ZM220.852 326.972L220.106 326.305L220.852 326.972ZM219.587 328.191L220.136 329.026L219.587 328.191ZM218.379 329.381L219.123 330.049V330.049L218.379 329.381ZM217.174 330.569L216.624 329.734L216.174 330.03V330.569H217.174ZM217.174 331.241L217.862 331.967L218.174 331.671V331.241H217.174ZM129.709 414.136L129.779 415.133L130.137 415.108L130.397 414.861L129.709 414.136ZM127.945 415.506L127.202 414.837V414.837L127.945 415.506ZM126.681 416.717L127.227 417.554L126.681 416.717ZM125.473 417.899L124.731 417.228L125.473 417.899ZM124.268 419.078L123.721 418.241L123.268 418.537V419.078H124.268ZM124.268 419.293L124.955 420.019L125.268 419.723V419.293H124.268ZM217.174 341.627H218.174V339.305L216.487 340.9L217.174 341.627ZM131.683 422.459L130.996 421.732L130.683 422.028V422.459H131.683ZM131.683 451.469H130.683V453.81L132.374 452.191L131.683 451.469ZM217.174 369.654L217.865 370.377L218.174 370.081V369.654H217.174ZM217.174 380.057H218.174V377.719L216.483 379.333L217.174 380.057ZM131.683 461.679L130.992 460.956L130.683 461.252V461.679H131.683ZM131.683 491.04H130.683V493.368L132.371 491.765L131.683 491.04ZM217.174 409.878L217.862 410.604L218.174 410.308V409.878H217.174ZM-2.79089 543.231L34.1711 506.059L32.7528 504.648L-4.20911 541.821L-2.79089 543.231ZM-2.5 552.5V542.526H-4.5V552.5H-2.5ZM32.7528 514.622L-4.20911 551.795L-2.79089 553.205L34.1711 516.032L32.7528 514.622ZM123.581 428.743L32.7749 514.6L34.149 516.054L124.955 430.197L123.581 428.743ZM125.268 458.565V429.47H123.268V458.565H125.268ZM34.1534 546.188L124.959 459.288L123.576 457.843L32.7705 544.743L34.1534 546.188ZM27 546.466H33.4619V544.466H27V546.466ZM28 555.456V545.466H26V555.456H28ZM33.4619 554.456H27V556.456H33.4619V554.456ZM123.577 468.036L32.7714 554.732L34.1525 556.179L124.958 469.482L123.577 468.036ZM125.268 498.079V468.759H123.268V498.079H125.268ZM34.1505 585.011L124.956 498.804L123.579 497.354L32.7734 583.56L34.1505 585.011ZM27 585.286H33.4619V583.286H27V585.286ZM28 594.276V584.286H26V594.276H28ZM33.4619 593.276H27V595.276H33.4619V593.276ZM123.58 507.547L32.7743 593.549L34.1496 595.002L124.955 508.999L123.58 507.547ZM125.268 537.136V508.273H123.268V537.136H125.268ZM131.683 536.136H124.268V538.136H131.683V536.136ZM130.683 501.25V537.136H132.683V501.25H130.683ZM216.486 419.555L130.995 500.524L132.37 501.976L217.861 421.007L216.486 419.555ZM216.174 420.281V449.464H218.174V420.281H216.174ZM217.174 450.464H224.589V448.464H217.174V450.464ZM225.589 449.464V413.258H223.589V449.464H225.589ZM294.414 345.749L223.901 412.532L225.277 413.984L295.789 347.201L294.414 345.749ZM294.101 335.898V346.475H296.101V335.898H294.101ZM225.277 403.564L295.79 336.623L294.413 335.173L223.9 402.114L225.277 403.564ZM225.589 402.839V372.977H223.589V402.839H225.589ZM294.411 304.932L223.898 372.254L225.279 373.7L295.792 306.379L294.411 304.932ZM294.101 295.078V305.655H296.101V295.078H294.101ZM225.28 363.28L295.793 295.8L294.41 294.355L223.897 361.836L225.28 363.28ZM225.589 362.558V334.616H223.589V362.558H225.589ZM294.414 267.219L223.902 333.889L225.276 335.342L295.788 268.672L294.414 267.219ZM294.101 257.385V267.946H296.101V257.385H294.101ZM223.722 326.413L295.789 258.111L294.413 256.66L222.346 324.962L223.722 326.413ZM223.524 324.816C222.664 324.332 221.858 324.713 221.383 325.057C220.911 325.397 220.46 325.909 220.106 326.305L221.597 327.638C221.999 327.188 222.295 326.865 222.554 326.678C222.675 326.591 222.723 326.583 222.708 326.586C222.665 326.595 222.594 326.587 222.543 326.559L223.524 324.816ZM220.106 326.305C219.659 326.805 219.328 327.164 219.038 327.355L220.136 329.026C220.692 328.661 221.208 328.073 221.597 327.638L220.106 326.305ZM219.038 327.355C218.775 327.527 218.521 327.768 218.306 327.987C218.082 328.215 217.849 328.475 217.635 328.713L219.123 330.049C219.344 329.803 219.546 329.578 219.733 329.388C219.929 329.188 220.061 329.076 220.136 329.026L219.038 327.355ZM217.635 328.713C217.414 328.958 217.213 329.183 217.026 329.373C216.831 329.572 216.699 329.684 216.624 329.734L217.724 331.404C217.985 331.232 218.239 330.992 218.454 330.773C218.677 330.546 218.909 330.287 219.123 330.049L217.635 328.713ZM216.174 330.569V331.241H218.174V330.569H216.174ZM130.397 414.861L217.862 331.967L216.486 330.515L129.021 413.41L130.397 414.861ZM128.688 416.175C129.003 415.826 129.258 415.546 129.495 415.342C129.753 415.119 129.834 415.129 129.779 415.133L129.639 413.138C129.019 413.182 128.52 413.541 128.19 413.826C127.837 414.129 127.493 414.514 127.202 414.837L128.688 416.175ZM127.227 417.554C127.783 417.191 128.3 416.607 128.688 416.175L127.202 414.837C126.755 415.333 126.425 415.689 126.134 415.879L127.227 417.554ZM126.214 418.57C126.435 418.325 126.638 418.102 126.825 417.913C127.02 417.715 127.152 417.603 127.227 417.554L126.134 415.879C125.872 416.05 125.617 416.289 125.402 416.507C125.178 416.733 124.945 416.991 124.731 417.228L126.214 418.57ZM124.815 419.915C125.076 419.744 125.33 419.506 125.545 419.289C125.768 419.063 126.001 418.806 126.214 418.57L124.731 417.228C124.511 417.471 124.309 417.694 124.122 417.883C123.927 418.08 123.796 418.192 123.721 418.241L124.815 419.915ZM125.268 419.293V419.078H123.268V419.293H125.268ZM34.1498 506.079L124.955 420.019L123.58 418.567L32.7741 504.628L34.1498 506.079ZM216.487 340.9L130.996 421.732L132.37 423.186L217.861 342.353L216.487 340.9ZM130.683 422.459V451.469H132.683V422.459H130.683ZM132.374 452.191L217.865 370.377L216.482 368.932L130.991 450.746L132.374 452.191ZM216.174 341.627V369.654H218.174V341.627H216.174ZM216.483 379.333L130.992 460.956L132.373 462.403L217.864 380.78L216.483 379.333ZM130.683 461.679V491.04H132.683V461.679H130.683ZM132.371 491.765L217.862 410.604L216.485 409.153L130.994 490.314L132.371 491.765ZM216.174 380.057V409.878H218.174V380.057H216.174Z" fill="#00357C" fill-opacity="0.15" mask="url(#path-4-inside-1_1880_49153)"/>
<path d="M412.761 44.522L318.549 22.5933V394.569H412.761V44.522Z" fill="#00357C"/>
<mask id="mask1_1880_49153" style="mask-type:alpha" maskUnits="userSpaceOnUse" x="318" y="22" width="95" height="373">
<path d="M412.761 44.522L318.549 22.5933V394.569H412.761V44.522Z" fill="#00357C"/>
</mask>
<g mask="url(#mask1_1880_49153)">
<circle opacity="0.4398" cx="361.552" cy="207.058" r="53.6812" fill="url(#paint0_radial_1880_49153)"/>
<path d="M755.032 330.407L757.141 329.314L759.509 329.532L758.415 327.42L758.634 325.052L756.524 326.145L754.156 325.927L755.249 328.039L755.032 330.407ZM642.58 312.202L644.142 309.799L646.754 308.619L644.352 307.056L643.174 304.442L641.611 306.845L638.999 308.025L641.401 309.589L642.58 312.202ZM518.845 304.171L521.85 302.862L525.088 303.383L523.781 300.374L524.299 297.135L521.294 298.444L518.056 297.924L519.363 300.932L518.845 304.171ZM676.365 295.627L677.25 294.307L678.707 293.675L677.39 292.789L676.758 291.331L675.872 292.65L674.415 293.282L675.733 294.169L676.365 295.627ZM628.742 262.774L630.112 262.11L631.623 262.291L630.96 260.921L631.14 259.408L629.771 260.073L628.26 259.892L628.923 261.262L628.742 262.774ZM764.423 260.907L765.521 260.002L766.933 259.832L766.029 258.735L765.859 257.321L764.762 258.226L763.349 258.396L764.253 259.494L764.423 260.907ZM668.972 259.114L670.642 257.332L673.009 256.733L671.228 255.061L670.63 252.693L668.96 254.475L666.593 255.074L668.373 256.745L668.972 259.114ZM850.064 258.156L852.068 256.504L854.644 256.196L852.994 254.191L852.685 251.612L850.682 253.263L848.105 253.572L849.755 255.577L850.064 258.156ZM392.178 281.81L393.624 278.559L396.595 276.603L393.346 275.156L391.392 272.184L389.946 275.434L386.975 277.39L390.224 278.837L392.178 281.81ZM-124.119 239.858L-122.395 238.068L-119.98 237.49L-121.768 235.766L-122.346 233.349L-124.067 235.139L-126.486 235.716L-124.694 237.44L-124.119 239.858ZM360.023 228.424L360.996 226.023L363.111 224.529L360.714 223.554L359.219 221.438L358.243 223.838L356.128 225.333L358.528 226.308L360.023 228.424ZM430.034 226.39L431.754 224.6L434.173 224.023L432.381 222.299L431.807 219.881L430.083 221.672L427.667 222.249L429.455 223.973L430.034 226.39ZM678.295 217.128L679.451 216.529L680.748 216.648L680.15 215.491L680.269 214.194L679.112 214.792L677.815 214.673L678.414 215.83L678.295 217.128ZM914.172 214.956L915.147 212.556L917.262 211.061L914.863 210.086L913.369 207.97L912.395 210.37L910.28 211.865L912.679 212.84L914.172 214.956ZM616.669 207.152L617.526 205.834L618.957 205.188L617.64 204.331L616.995 202.899L616.138 204.216L614.707 204.862L616.024 205.719L616.669 207.152ZM392.04 202.75L393.685 202.033L395.458 202.318L394.745 200.669L395.026 198.894L393.381 199.612L391.608 199.326L392.322 200.975L392.04 202.75ZM718.183 190.989L718.523 189.953L719.368 189.265L718.333 188.925L717.645 188.079L717.305 189.115L716.461 189.803L717.495 190.144L718.183 190.989ZM-93.6292 190.644L-92.8366 188.862L-91.2064 187.79L-92.9869 186.998L-94.0575 185.368L-94.85 187.15L-96.4802 188.222L-94.6998 189.015L-93.6292 190.644ZM771.062 189.534L772.333 186.339L775.127 184.335L771.933 183.063L769.93 180.267L768.659 183.462L765.866 185.467L769.059 186.739L771.062 189.534ZM631.133 178.058L632.049 177.081L633.346 176.753L632.369 175.837L632.041 174.539L631.126 175.516L629.829 175.844L630.804 176.76L631.133 178.058ZM388.145 177.176L388.937 175.395L390.564 174.323L388.783 173.53L387.713 171.901L386.92 173.682L385.294 174.754L387.07 175.547L388.145 177.176ZM354.49 175.339L354.603 173.942L355.452 172.827L354.054 172.714L352.943 171.865L352.826 173.262L351.977 174.377L353.374 174.49L354.49 175.339ZM908.64 161.872L908.753 160.475L909.602 159.36L908.206 159.247L907.091 158.397L906.978 159.794L906.129 160.909L907.526 161.023L908.64 161.872ZM825.165 160.135L825.785 158.245L827.326 156.989L825.438 156.368L824.183 154.826L823.562 156.715L822.021 157.971L823.91 158.592L825.165 160.135ZM-36.3375 156.787C-36.1797 156.454 -36.0221 156.123 -35.8643 155.791L-37.0438 155.94L-36.3375 156.787ZM649.871 154.789L650.959 152.348L653.19 150.88L650.751 149.791L649.284 147.558L648.196 149.999L645.965 151.467L648.404 152.556L649.871 154.789ZM765.507 153.859L766.041 152.543L767.2 151.725L765.886 151.19L765.067 150.03L764.533 151.346L763.374 152.165L764.689 152.699L765.507 153.859ZM-146.477 149.231L-146.571 145.983L-144.899 143.196L-148.145 143.29L-150.932 141.616L-150.838 144.865L-152.51 147.651L-149.264 147.557L-146.477 149.231ZM362.361 147.248L364.442 145.511L367.136 145.172L365.396 143.088L365.058 140.396L362.977 142.134L360.288 142.472L362.023 144.556L362.361 147.248ZM687.08 139.927L687.777 138.176L689.307 137.078L687.557 136.381L686.46 134.848L685.763 136.599L684.232 137.698L685.982 138.395L687.08 139.927ZM407.672 135.763L407.578 132.515L409.25 129.729L406.004 129.822L403.221 128.148L403.315 131.397L401.64 134.184L404.889 134.09L407.672 135.763ZM620.665 120.886L621.261 119.548L622.484 118.744L621.147 118.147L620.343 116.923L619.748 118.261L618.524 119.066L619.861 119.662L620.665 120.886ZM549.046 116.754L550.188 115.802L551.66 115.616L550.71 114.474L550.526 112.999L549.384 113.951L547.907 114.136L548.862 115.278L549.046 116.754ZM-52.1442 116.587L-52.163 115.245L-51.4532 114.106L-52.7942 114.124L-53.9323 113.415L-53.9172 114.758L-54.6234 115.897L-53.2825 115.878L-52.1442 116.587ZM502.005 103.119L501.99 101.778L502.696 100.639L501.355 100.657L500.217 99.9482L500.236 101.29L499.526 102.429L500.867 102.411L502.005 103.119ZM848.313 101.534L848.52 98.985L850.069 96.951L847.521 96.7433L845.488 95.1942L845.281 97.7434L843.732 99.7778L846.281 99.9847L848.313 101.534ZM2.07465 101.365C2.42395 101.004 2.76575 100.656 3.11884 100.298L3.07758 99.175L4.5238 96.7241L1.6803 96.8283L-0.76886 95.3813L-0.663635 98.2254L-2.10992 100.677L0.733643 100.572L2.07465 101.365ZM-124.457 94.6912L-122.872 91.8516L-120.01 90.3161L-122.846 88.7321L-124.382 85.8658L-125.964 88.7054L-128.83 90.2412L-125.994 91.8256L-124.457 94.6912ZM362.003 89.1851L363.952 86.5122L367.036 85.3146L364.362 83.3637L363.167 80.2788L361.218 82.9517L358.134 84.1489L360.805 86.1002L362.003 89.1851ZM557.332 88.5522L557.227 85.7074L558.673 83.2568L555.833 83.3611L553.384 81.914L553.486 84.7585L552.039 87.2094L554.883 87.1052L557.332 88.5522ZM569.953 84.5873L569.897 83.0277L570.686 81.6852L569.131 81.742L567.79 80.9489L567.846 82.5077L567.053 83.8513L568.609 83.7938L569.953 84.5873ZM625.967 81.9035L625.934 79.4559L627.226 77.3764L624.78 77.4095L622.702 76.117L622.735 78.5653L621.443 80.6445L623.89 80.611L625.967 81.9035ZM429.696 81.2239L431.277 78.3844L434.143 76.8492L431.303 75.2648L429.767 72.3985L428.186 75.2377L425.32 76.774L428.159 78.3584L429.696 81.2239ZM766.592 77.5536L767.661 76.0888L769.35 75.4323L767.887 74.3629L767.231 72.6728L766.162 74.1376L764.473 74.7938L765.936 75.8631L766.592 77.5536ZM916.153 75.7178L918.103 73.0449L921.186 71.8473L918.514 69.8961L917.317 66.8112L915.368 69.4844L912.285 70.6817L914.956 72.6329L916.153 75.7178ZM704.632 69.9228L706.096 68.6179L708.031 68.3098L706.727 66.845L706.419 64.9084L704.956 66.2133L703.02 66.5218L704.324 67.9858L704.632 69.9228ZM373.201 56.3655L372.833 54.0478L371.417 55.3101C372.014 55.6593 372.608 56.0103 373.201 56.3655ZM89.0225 317.909L87.4598 320.313L84.8492 321.492L87.2495 323.056L88.4291 325.669L89.9916 323.266L92.6022 322.086L90.202 320.523L89.0225 317.909ZM806.351 52.6433L803.681 55.0242L800.149 55.5875L802.528 58.2589L803.091 61.7934L805.761 59.4125L809.292 58.8496L806.913 56.1775L806.351 52.6433ZM-29.8504 310.602L-32.8593 311.912L-36.0934 311.391L-34.7862 314.399L-35.3046 317.639L-32.2996 316.329L-29.0654 316.85L-30.3725 313.841L-29.8504 310.602ZM122.608 304.799L121.721 306.117L120.264 306.75L121.582 307.636L122.214 309.094L123.1 307.775L124.557 307.143L123.239 306.256L122.608 304.799ZM76.991 272.876L75.6199 273.54L74.1099 273.359L74.771 274.73L74.5907 276.241L75.9617 275.578L77.4717 275.758L76.8107 274.388L76.991 272.876ZM211.708 270.788L210.611 271.693L209.199 271.863L210.104 272.961L210.273 274.374L211.37 273.469L212.782 273.3L211.877 272.202L211.708 270.788ZM116.478 266.16L114.81 267.942L112.443 268.541L114.224 270.213L114.821 272.581L116.493 270.799L118.859 270.201L117.079 268.529L116.478 266.16ZM298.536 265.08L296.53 266.731L293.953 267.04L295.606 269.044L295.914 271.623L297.916 269.972L300.493 269.663L298.844 267.658L298.536 265.08ZM6.12775 249.461L4.6778 252.712L1.71027 254.668L4.95575 256.115L6.91284 259.088L8.35907 255.837L11.3301 253.881L8.08099 252.434L6.12775 249.461ZM126.12 227.661L124.963 228.26L123.663 228.141L124.264 229.298L124.144 230.596L125.301 229.996L126.597 230.116L126 228.958L126.12 227.661ZM62.8446 216.366L61.9881 217.683L60.5569 218.329L61.8718 219.186L62.5178 220.619L63.3743 219.302L64.8054 218.655L63.4907 217.798L62.8446 216.366ZM-2.30151 212.362L-3.94672 213.079L-5.72357 212.794L-5.00598 214.442L-5.29156 216.218L-3.64252 215.5L-1.86945 215.786L-2.58698 214.137L-2.30151 212.362ZM163.496 201.547L163.154 202.582L162.309 203.271L163.345 203.611L164.033 204.456L164.371 203.421L165.216 202.732L164.183 202.392L163.496 201.547ZM336.412 254.051L335.142 257.246L332.348 259.25L335.54 260.522L337.543 263.317L338.816 260.122L341.607 258.118L338.414 256.846L336.412 254.051ZM77.8887 188.006L76.976 188.983L75.6762 189.311L76.653 190.227L76.9834 191.525L77.8963 190.549L79.196 190.221L78.2192 189.304L77.8887 188.006ZM390.665 156.23L390.045 158.12L388.501 159.376L390.39 159.996L391.645 161.539L392.265 159.649L393.809 158.393L391.919 157.772L390.665 156.23ZM95.134 161.026L94.0447 163.467L91.8134 164.935L94.2551 166.023L95.72 168.256L96.8094 165.815L99.0406 164.347L96.599 163.259L95.134 161.026ZM331.547 151.434L331.014 152.75L329.853 153.569L331.168 154.103L331.987 155.263L332.52 153.948L333.681 153.129L332.366 152.594L331.547 151.434ZM132.31 148.316L131.612 150.067L130.083 151.165L131.83 151.863L132.93 153.395L133.625 151.643L135.158 150.545L133.407 149.848L132.31 148.316ZM66.1915 130.391L65.5981 131.729L64.3734 132.533L65.7107 133.13L66.5145 134.353L67.1119 133.016L68.3326 132.212L66.9954 131.615L66.1915 130.391ZM-3.62738 126.466L-4.76935 127.418L-6.24194 127.603L-5.29156 128.746L-5.10742 130.221L-3.96558 129.269L-2.48926 129.083L-3.43964 127.941L-3.62738 126.466ZM339.591 120.724L339.385 123.274L337.833 125.308L340.384 125.516L342.416 127.065L342.623 124.516L344.17 122.482L341.624 122.274L339.591 120.724ZM13.6367 94.4165L13.6931 95.975L12.9005 97.3186L14.4593 97.2614L15.8004 98.0545L15.744 96.4953L16.5366 95.1525L14.9776 95.2093L13.6367 94.4165ZM68.5505 89.5843L68.5843 92.0326L67.2921 94.1114L69.7374 94.0787L71.8148 95.3711L71.7847 92.9232L73.0731 90.8436L70.6277 90.8767L68.5505 89.5843ZM333.711 74.0769L332.644 75.5416L330.954 76.1978L332.419 77.2668L333.072 78.9577L334.143 77.4929L335.833 76.8363L334.368 75.7674L333.711 74.0769ZM152.268 78.3757L150.807 79.6809L148.868 79.9895L150.172 81.4535L150.48 83.3904L151.945 82.0852L153.879 81.777L152.576 80.3127L152.268 78.3757Z" fill="url(#paint1_linear_1880_49153)"/>
</g>
<path d="M413.135 43.8419L318.549 20.761V13.6592L441.999 43.8419V395.381H413.135V43.8419Z" fill="#00B8B7"/>
<path d="M317.722 5.53711H295.809V400.815L317.722 401.878V12.6273L437.127 41.6971V35.3159L317.722 5.53711Z" fill="url(#paint2_linear_1880_49153)"/>
<path d="M256 17.0444L294.602 5V392.228H256V17.0444Z" fill="url(#paint3_linear_1880_49153)"/>
<path d="M433.106 390.825H266.178V412.687H433.106V390.825Z" fill="#C0F2FF"/>
<path d="M266.278 412.587V390.925H433.006V412.587H266.278Z" stroke="#00357C" stroke-opacity="0.15" stroke-width="0.2"/>
<path opacity="0.6" d="M433.106 390.825H266.178V394.096H433.106V390.825Z" fill="white"/>
<path d="M380.722 412.688H238.377V434.55H380.722V412.688Z" fill="#C0F2FF"/>
<path d="M238.477 434.45V412.788H380.622V434.45H238.477Z" stroke="#00357C" stroke-opacity="0.15" stroke-width="0.2"/>
<path opacity="0.6" d="M380.722 412.688H238.377V415.958H380.722V412.688Z" fill="white"/>
<path d="M363.309 434.723H207.238V456.585H363.309V434.723Z" fill="#C0F2FF"/>
<path d="M207.338 456.485V434.823H363.209V456.485H207.338Z" stroke="#00357C" stroke-opacity="0.15" stroke-width="0.2"/>
<path opacity="0.6" d="M363.309 434.723H207.238V437.993H363.309V434.723Z" fill="white"/>
<rect x="476" y="550" width="28" height="110" transform="rotate(-180 476 550)" fill="url(#paint4_linear_1880_49153)"/>
<path d="M328.407 456.585H186.496V478.448H328.407V456.585Z" fill="#C0F2FF"/>
<path d="M186.596 478.348V456.685H328.307V478.348H186.596Z" stroke="#00357C" stroke-opacity="0.15" stroke-width="0.2"/>
<path opacity="0.6" d="M328.407 456.585H186.496V459.856H328.407V456.585Z" fill="white"/>
<mask id="path-26-inside-2_1880_49153" fill="white">
<path fill-rule="evenodd" clip-rule="evenodd" d="M162.478 525.493V560.148L249.281 472.343V437.287L162.478 525.493ZM331.402 398.46L256.26 474.817V549.54H249.281V481.909L162.478 570.115V639H155.262V521.605C155.589 521.386 156.012 520.909 156.435 520.432L156.435 520.431C156.858 519.953 157.282 519.475 157.61 519.256C158.022 518.982 158.434 518.514 158.841 518.053C159.635 517.152 160.408 516.274 161.122 516.898L413.601 261.504L489 284.123V283.804C489 282.889 490.554 281.746 491.278 281.44C493.414 280.537 494.601 281.616 495.849 282.751C495.899 282.797 495.949 282.843 496 282.889V402H489V336.476L418 316.19V392H411V317.576L338.619 391.127V462.859H331.402V398.46ZM489 328.746V291.853L418 271.568V307.446L489 328.746ZM256.26 430.195V465.284L331.402 389.274V353.838L256.26 430.195ZM338.619 381.974V346.505L411 272.954V308.757L338.619 381.974Z"/>
</mask>
<path fill-rule="evenodd" clip-rule="evenodd" d="M162.478 525.493V560.148L249.281 472.343V437.287L162.478 525.493ZM331.402 398.46L256.26 474.817V549.54H249.281V481.909L162.478 570.115V639H155.262V521.605C155.589 521.386 156.012 520.909 156.435 520.432L156.435 520.431C156.858 519.953 157.282 519.475 157.61 519.256C158.022 518.982 158.434 518.514 158.841 518.053C159.635 517.152 160.408 516.274 161.122 516.898L413.601 261.504L489 284.123V283.804C489 282.889 490.554 281.746 491.278 281.44C493.414 280.537 494.601 281.616 495.849 282.751C495.899 282.797 495.949 282.843 496 282.889V402H489V336.476L418 316.19V392H411V317.576L338.619 391.127V462.859H331.402V398.46ZM489 328.746V291.853L418 271.568V307.446L489 328.746ZM256.26 430.195V465.284L331.402 389.274V353.838L256.26 430.195ZM338.619 381.974V346.505L411 272.954V308.757L338.619 381.974Z" fill="white"/>
<path d="M162.478 560.148H161.478V562.582L163.19 560.851L162.478 560.148ZM162.478 525.493L161.766 524.791L161.478 525.083V525.493H162.478ZM249.281 472.343L249.992 473.046L250.281 472.754V472.343H249.281ZM249.281 437.287H250.281V434.845L248.568 436.585L249.281 437.287ZM256.26 474.817L255.547 474.116L255.26 474.408V474.817H256.26ZM331.402 398.46H332.402V396.018L330.69 397.759L331.402 398.46ZM256.26 549.54V550.54H257.26V549.54H256.26ZM249.281 549.54H248.281V550.54H249.281V549.54ZM249.281 481.909H250.281V479.467L248.568 481.208L249.281 481.909ZM162.478 570.115L161.766 569.414L161.478 569.706V570.115H162.478ZM162.478 639V640H163.478V639H162.478ZM155.262 639H154.262V640H155.262V639ZM155.262 521.605L154.706 520.773L154.262 521.07V521.605H155.262ZM156.435 520.432L157.183 521.095L157.205 521.07L157.225 521.044L156.435 520.432ZM156.435 520.431L155.686 519.768L155.665 519.793L155.644 519.819L156.435 520.431ZM157.61 519.256L158.165 520.088H158.165L157.61 519.256ZM158.841 518.053L159.591 518.714H159.591L158.841 518.053ZM161.122 516.898L160.464 517.651L161.172 518.27L161.833 517.601L161.122 516.898ZM413.601 261.504L413.888 260.546L413.312 260.373L412.89 260.801L413.601 261.504ZM489 284.123L488.713 285.081L490 285.467V284.123H489ZM491.278 281.44L490.889 280.519L490.889 280.519L491.278 281.44ZM495.849 282.751L495.176 283.491L495.176 283.491L495.849 282.751ZM496 282.889H497V282.445L496.671 282.148L496 282.889ZM496 402V403H497V402H496ZM489 402H488V403H489V402ZM489 336.476H490V335.721L489.275 335.514L489 336.476ZM418 316.19L418.275 315.228L417 314.864V316.19H418ZM418 392V393H419V392H418ZM411 392H410V393H411V392ZM411 317.576H412V315.134L410.287 316.874L411 317.576ZM338.619 391.127L337.906 390.426L337.619 390.717V391.127H338.619ZM338.619 462.859V463.859H339.619V462.859H338.619ZM331.402 462.859H330.402V463.859H331.402V462.859ZM489 291.853H490V291.099L489.275 290.892L489 291.853ZM489 328.746L488.713 329.704L490 330.09V328.746H489ZM418 271.568L418.275 270.606L417 270.242V271.568H418ZM418 307.446H417V308.19L417.713 308.404L418 307.446ZM256.26 465.284H255.26V467.717L256.971 465.987L256.26 465.284ZM256.26 430.195L255.547 429.494L255.26 429.785V430.195H256.26ZM331.402 389.274L332.113 389.977L332.402 389.684V389.274H331.402ZM331.402 353.838H332.402V351.396L330.69 353.137L331.402 353.838ZM338.619 346.505L337.906 345.803L337.619 346.095V346.505H338.619ZM338.619 381.974H337.619V384.408L339.33 382.677L338.619 381.974ZM411 272.954H412V270.512L410.287 272.252L411 272.954ZM411 308.757L411.711 309.46L412 309.168V308.757H411ZM163.478 560.148V525.493H161.478V560.148H163.478ZM248.57 471.64L161.767 559.445L163.19 560.851L249.992 473.046L248.57 471.64ZM248.281 437.287V472.343H250.281V437.287H248.281ZM163.191 526.194L249.994 437.988L248.568 436.585L161.766 524.791L163.191 526.194ZM256.973 475.519L332.115 399.162L330.69 397.759L255.547 474.116L256.973 475.519ZM257.26 549.54V474.817H255.26V549.54H257.26ZM249.281 550.54H256.26V548.54H249.281V550.54ZM248.281 481.909V549.54H250.281V481.909H248.281ZM163.191 570.817L249.994 482.61L248.568 481.208L161.766 569.414L163.191 570.817ZM163.478 639V570.115H161.478V639H163.478ZM155.262 640H162.478V638H155.262V640ZM154.262 521.605V639H156.262V521.605H154.262ZM155.686 519.769C155.471 520.011 155.275 520.232 155.094 520.42C154.904 520.616 154.777 520.726 154.706 520.773L155.817 522.436C156.074 522.265 156.323 522.026 156.532 521.81C156.749 521.585 156.975 521.329 157.183 521.095L155.686 519.769ZM155.644 519.819L155.644 519.819L157.225 521.044L157.225 521.044L155.644 519.819ZM157.056 518.424C156.798 518.596 156.549 518.835 156.339 519.051C156.121 519.277 155.894 519.533 155.686 519.768L157.183 521.094C157.399 520.851 157.595 520.63 157.777 520.442C157.967 520.245 158.094 520.136 158.165 520.088L157.056 518.424ZM158.091 517.391C157.655 517.886 157.335 518.238 157.056 518.424L158.165 520.088C158.709 519.725 159.214 519.142 159.591 518.714L158.091 517.391ZM161.78 516.145C161.431 515.84 161.002 515.668 160.53 515.69C160.094 515.71 159.729 515.891 159.458 516.071C158.942 516.414 158.456 516.977 158.091 517.391L159.591 518.714C159.794 518.484 159.973 518.281 160.146 518.105C160.321 517.926 160.459 517.807 160.566 517.736C160.676 517.662 160.688 517.684 160.623 517.688C160.521 517.692 160.457 517.644 160.464 517.651L161.78 516.145ZM412.89 260.801L160.411 516.195L161.833 517.601L414.312 262.207L412.89 260.801ZM489.287 283.166L413.888 260.546L413.313 262.461L488.713 285.081L489.287 283.166ZM488 283.804V284.123H490V283.804H488ZM490.889 280.519C490.403 280.724 489.739 281.156 489.192 281.656C488.914 281.91 488.634 282.212 488.417 282.545C488.207 282.867 488 283.303 488 283.804H490C490 283.848 489.988 283.798 490.092 283.638C490.188 283.49 490.342 283.315 490.543 283.131C490.954 282.754 491.43 282.461 491.667 282.361L490.889 280.519ZM496.522 282.012C495.927 281.471 495.19 280.786 494.28 280.408C493.292 279.998 492.183 279.972 490.889 280.519L491.667 282.361C492.509 282.005 493.061 282.067 493.513 282.255C494.043 282.475 494.523 282.897 495.176 283.491L496.522 282.012ZM496.671 282.148C496.622 282.103 496.572 282.057 496.522 282.012L495.176 283.491C495.226 283.537 495.277 283.583 495.329 283.63L496.671 282.148ZM497 402V282.889H495V402H497ZM489 403H496V401H489V403ZM488 336.476V402H490V336.476H488ZM417.725 317.151L488.725 337.437L489.275 335.514L418.275 315.228L417.725 317.151ZM419 392V316.19H417V392H419ZM411 393H418V391H411V393ZM410 317.576V392H412V317.576H410ZM339.332 391.828L411.713 318.277L410.287 316.874L337.906 390.426L339.332 391.828ZM339.619 462.859V391.127H337.619V462.859H339.619ZM331.402 463.859H338.619V461.859H331.402V463.859ZM330.402 398.46V462.859H332.402V398.46H330.402ZM488 291.853V328.746H490V291.853H488ZM417.725 272.529L488.725 292.815L489.275 290.892L418.275 270.606L417.725 272.529ZM419 307.446V271.568H417V307.446H419ZM489.287 327.788L418.287 306.488L417.713 308.404L488.713 329.704L489.287 327.788ZM257.26 465.284V430.195H255.26V465.284H257.26ZM330.691 388.571L255.549 464.581L256.971 465.987L332.113 389.977L330.691 388.571ZM330.402 353.838V389.274H332.402V353.838H330.402ZM256.973 430.896L332.115 354.539L330.69 353.137L255.547 429.494L256.973 430.896ZM337.619 346.505V381.974H339.619V346.505H337.619ZM410.287 272.252L337.906 345.803L339.332 347.206L411.713 273.655L410.287 272.252ZM412 308.757V272.954H410V308.757H412ZM339.33 382.677L411.711 309.46L410.289 308.054L337.908 381.271L339.33 382.677Z" fill="#00357C" fill-opacity="0.15" mask="url(#path-26-inside-2_1880_49153)"/>
<path d="M379.654 391L175 610H237.334L393.996 431.16L476 431.164V392.899L391.238 391H379.654Z" fill="white"/>
<path d="M393.996 430.66L393.77 430.66L393.62 430.83L237.107 609.5H176.152L379.871 391.5H391.233H391.238L475.5 393.388V430.664L393.996 430.66Z" stroke="#00357C" stroke-opacity="0.15"/>
<path d="M475 392L495 402V559H475V392Z" fill="white"/>
<path d="M494.5 402.309V558.5H475.5V392.809L494.5 402.309Z" stroke="#00357C" stroke-opacity="0.15"/>
<path d="M495 441L475 431V441H495Z" fill="url(#paint5_linear_1880_49153)"/>
</g>
<defs>
<radialGradient id="paint0_radial_1880_49153" cx="0" cy="0" r="1" gradientUnits="userSpaceOnUse" gradientTransform="translate(361.552 200.211) scale(55.4105)">
<stop stop-color="#02C988"/>
<stop offset="1" stop-color="#02C988" stop-opacity="0"/>
</radialGradient>
<linearGradient id="paint1_linear_1880_49153" x1="921.186" y1="300.565" x2="921.186" y2="59.7775" gradientUnits="userSpaceOnUse">
<stop stop-color="white"/>
<stop offset="1" stop-color="white" stop-opacity="0.597766"/>
</linearGradient>
<linearGradient id="paint2_linear_1880_49153" x1="366.468" y1="5.53711" x2="366.468" y2="401.878" gradientUnits="userSpaceOnUse">
<stop stop-color="#73DFE7"/>
<stop offset="1" stop-color="#73DFE7" stop-opacity="0"/>
</linearGradient>
<linearGradient id="paint3_linear_1880_49153" x1="294.267" y1="189.882" x2="255.949" y2="188.945" gradientUnits="userSpaceOnUse">
<stop stop-color="white"/>
<stop offset="1" stop-color="white" stop-opacity="0"/>
</linearGradient>
<linearGradient id="paint4_linear_1880_49153" x1="490" y1="550" x2="490" y2="660" gradientUnits="userSpaceOnUse">
<stop stop-color="#73DFE7"/>
<stop offset="1" stop-color="#73DFE7" stop-opacity="0"/>
</linearGradient>
<linearGradient id="paint5_linear_1880_49153" x1="485" y1="431" x2="485" y2="441" gradientUnits="userSpaceOnUse">
<stop stop-color="#73DFE7"/>
<stop offset="1" stop-color="#73DFE7" stop-opacity="0"/>
</linearGradient>
</defs>
</svg>
